<svg width="107" height="119" viewBox="0 0 107 119" fill="none" xmlns="http://www.w3.org/2000/svg">
<g filter="url(#filter0_i)">
<path d="M100.737 0.0540816C98.3039 -0.161554 93.8942 1.82076 92.6945 3.96171C89.3842 10.648 86.0313 18.1321 83.9755 25.5253C82.1052 32.2562 80.2075 36.84 78.0969 42.981C74.7943 52.5984 73.1733 61.1052 70.4028 65.0652C69.4905 66.3744 73.9351 61.7152 71.9234 60.4845C69.4023 59.779 67.868 64.4707 64.7296 64.2289C59.5596 63.6728 69.4434 60.3397 70.8119 57.8768C74.5677 49.6318 65.353 59.8099 62.4898 60.0116C30.5105 74.5101 11.4045 22.5203 44.1166 15.4027C49.279 13.9949 63.7321 10.6942 61.3767 19.4305C60.5677 21.821 58.851 23.8972 57.0948 25.821C54.3197 28.8476 54.1524 30.6682 47.5486 31.0579C39.0181 32.1499 38.968 46.7023 47.5288 47.5386C53.1291 48.8217 58.3355 44.0623 57.9007 39.5293C58.5849 37.2405 57.2772 36.1053 59.292 34.9655C63.615 31.2396 68.7196 24.7398 68.8807 24.518C70.7282 22.2214 71.2878 21.9119 72.0207 19.3966C74.1343 12.1405 72.7658 14.1043 68.4854 10.0534C65.8 5.13847 59.8926 5.57744 55.5012 4.7149C54.1524 4.02794 59.4425 3.24087 56.9898 2.47998C55.559 2.03793 47.0255 3.75378 45.3848 3.11149C43.665 2.4384 49.2988 0.513078 47.4862 0.051001C44.4542 -0.303258 41.8266 1.28321 39.0562 1.87466C35.8741 2.52317 32.804 3.64371 29.9449 5.20008C25.9427 7.41188 22.0881 10.2321 20.1417 13.4343C20.0737 13.6108 19.9493 13.7591 19.7884 13.8555C19.6274 13.952 19.4392 13.991 19.2538 13.9663C19.0683 13.9417 18.8964 13.8548 18.7655 13.7195C18.6345 13.5843 18.5521 13.4085 18.5314 13.2202C18.2456 11.5583 17.6921 9.78388 17.1629 7.99718C15.139 -1.61094 -2.29591 -2.61826 0.254101 9.30178C4.96789 28.3794 21.9694 67.4218 31.1081 93.5646C33.4741 100.331 37.5766 107.011 41.3203 113.093C46.0599 120.913 57.2529 120.981 62.0838 113.221C65.9399 107.214 69.5924 100.872 72.001 94.1345C82.6663 65.3717 95.2262 36.1546 106.524 8.62561C108.223 4.49156 105.16 -0.0552766 100.737 0.0540816ZM63.3671 75.4327C66.5193 74.4823 64.3418 78.1589 63.8963 79.0338C59.9884 86.6873 53.9532 107.365 48.3408 97.9035C28.184 63.9208 44.8237 81.0176 63.3671 75.4327Z" fill="black"/>
</g>
<defs>
<filter id="filter0_i" x="0" y="0" width="107" height="123" filterUnits="userSpaceOnUse" color-interpolation-filters="sRGB">
<feFlood flood-opacity="0" result="BackgroundImageFix"/>
<feBlend mode="normal" in="SourceGraphic" in2="BackgroundImageFix" result="shape"/>
<feColorMatrix in="SourceAlpha" type="matrix" values="0 0 0 0 0 0 0 0 0 0 0 0 0 0 0 0 0 0 127 0" result="hardAlpha"/>
<feOffset dy="4"/>
<feGaussianBlur stdDeviation="2"/>
<feComposite in2="hardAlpha" operator="arithmetic" k2="-1" k3="1"/>
<feColorMatrix type="matrix" values="0 0 0 0 0 0 0 0 0 0 0 0 0 0 0 0 0 0 0.25 0"/>
<feBlend mode="normal" in2="shape" result="effect1_innerShadow"/>
</filter>
</defs>
</svg>
