<svg width="40" height="40" viewBox="0 0 40 40" fill="none" xmlns="http://www.w3.org/2000/svg">
<path d="M32.7887 7.22416L33.2886 7.23487L33.2886 7.23482L32.7887 7.22416ZM30.8568 5.29226L30.8568 4.79226L30.8568 5.29226ZM25.1031 5.25027L25.1081 4.75027L25.1031 4.75027V5.25027ZM23.2972 7.05618L22.7972 7.05617L22.7972 7.05618H23.2972ZM23.2972 14.9517L22.908 15.2656L23.2972 14.9517ZM7.22389 32.789L7.23455 33.2889L7.2346 33.2889L7.22389 32.789ZM5.29199 30.8571L4.79199 30.8571L5.29199 30.8571ZM5.25 25.1034L4.74998 25.1034L4.75003 25.1084L5.25 25.1034ZM7.0559 23.2975V22.7975V23.2975ZM14.9515 23.2975L15.2653 22.9083L14.9515 23.2975ZM15.0436 23.3714L15.3554 22.9805L15.0436 23.3714ZM23.623 20.3178L24.0325 20.6046L23.623 20.3178ZM25.6667 25.7207C28.0318 23.3556 33.0833 16.8143 33.2886 7.23487L32.2888 7.21345C32.0909 16.449 27.214 22.7592 24.9596 25.0136L25.6667 25.7207ZM33.2886 7.23482C33.3026 6.58025 33.0806 5.96523 32.646 5.51151C32.2089 5.05516 31.5857 4.79226 30.8568 4.79226L30.8568 5.79226C31.3375 5.79226 31.6917 5.96085 31.9238 6.20323C32.1585 6.44823 32.2977 6.79915 32.2888 7.21349L33.2886 7.23482ZM30.8568 4.79226C29.6503 4.79226 26.5229 4.7643 25.1081 4.7503L25.0982 5.75025C26.5112 5.76424 29.6443 5.79226 30.8568 5.79226L30.8568 4.79226ZM25.1031 4.75027C24.8778 4.75027 24.6284 4.82568 24.4061 4.92396C24.1731 5.02698 23.9246 5.17523 23.6949 5.3627C23.247 5.72832 22.7972 6.30786 22.7972 7.05617H23.7972C23.7972 6.72935 23.9983 6.40594 24.3273 6.13739C24.4861 6.00778 24.6576 5.90614 24.8105 5.83855C24.9741 5.76622 25.0764 5.75027 25.1031 5.75027L25.1031 4.75027ZM22.7972 7.05618C22.7972 7.67409 22.6082 8.85375 22.4061 9.98129C22.3046 10.5473 22.2095 11.0492 22.1319 11.4795C22.0944 11.6877 22.0623 11.8718 22.0395 12.0185C22.0189 12.1507 21.9993 12.2918 21.9993 12.3899H22.9993C22.9993 12.3943 22.9994 12.3798 23.0048 12.3341C23.0096 12.293 23.0172 12.2391 23.0276 12.172C23.0485 12.0379 23.0787 11.8637 23.116 11.6571C23.188 11.2579 23.2924 10.7047 23.3904 10.1577C23.5873 9.05939 23.7972 7.78219 23.7972 7.05617L22.7972 7.05618ZM21.9993 12.3899C21.9993 12.5059 21.9865 12.5748 21.9768 12.7914C21.9687 12.9736 21.9695 13.1935 22.0111 13.4471C22.0955 13.9622 22.3378 14.5586 22.908 15.2656L23.6864 14.6379C23.2067 14.043 23.05 13.6033 22.9979 13.2854C22.9713 13.1225 22.9695 12.9766 22.9758 12.8361C22.9806 12.7298 22.9993 12.5187 22.9993 12.3899H21.9993ZM22.908 15.2656C22.9321 15.2955 22.9562 15.3255 22.9802 15.3556L23.7621 14.7322C23.7369 14.7007 23.7117 14.6692 23.6864 14.6379L22.908 15.2656ZM23.2135 20.0309C22.7287 20.723 22.2195 21.3701 21.7678 21.8218L22.4749 22.5289C22.9861 22.0177 23.5337 21.3168 24.0325 20.6046L23.2135 20.0309ZM25.0133 24.9598C22.7589 27.2143 16.4487 32.0912 7.21317 32.2891L7.2346 33.2889C16.814 33.0836 23.3554 28.032 25.7204 25.667L25.0133 24.9598ZM7.21322 32.2891C6.79888 32.2979 6.44796 32.1588 6.20296 31.9241C5.96059 31.6919 5.79199 31.3378 5.79199 30.8571L4.79199 30.8571C4.79199 31.5859 5.05489 32.2091 5.51124 32.6463C5.96496 33.0808 6.57998 33.3028 7.23455 33.2889L7.21322 32.2891ZM5.79199 30.8571C5.79199 29.6445 5.76397 26.5115 5.74998 25.0985L4.75003 25.1084C4.76403 26.5232 4.79199 29.6506 4.79199 30.8571L5.79199 30.8571ZM5.75 25.1034C5.75 25.0767 5.76595 24.9743 5.83828 24.8107C5.90587 24.6579 6.00751 24.4864 6.13712 24.3276C6.40566 23.9986 6.72907 23.7975 7.0559 23.7975L7.0559 22.7975C6.30759 22.7975 5.72805 23.2473 5.36243 23.6952C5.17496 23.9249 5.02671 24.1734 4.92369 24.4063C4.82541 24.6286 4.75 24.878 4.75 25.1034L5.75 25.1034ZM7.0559 23.7975C7.78191 23.7975 9.05912 23.5876 10.1575 23.3907C10.7044 23.2926 11.2577 23.1883 11.6568 23.1163C11.8634 23.079 12.0376 23.0487 12.1717 23.0279C12.2389 23.0175 12.2928 23.0099 12.3338 23.0051C12.3796 22.9997 12.3941 22.9995 12.3896 22.9995L12.3896 21.9995C12.2915 21.9995 12.1504 22.0192 12.0182 22.0398C11.8715 22.0626 11.6874 22.0946 11.4793 22.1322C11.049 22.2098 10.547 22.3049 9.98102 22.4064C8.85348 22.6085 7.67382 22.7975 7.0559 22.7975L7.0559 23.7975ZM12.3896 22.9995C12.5184 22.9995 12.7295 22.9808 12.8358 22.9761C12.9764 22.9698 13.1222 22.9715 13.2851 22.9982C13.603 23.0503 14.0427 23.207 14.6376 23.6867L15.2653 22.9083C14.5583 22.3381 13.9619 22.0958 13.4468 22.0114C13.1932 21.9698 12.9734 21.9689 12.7911 21.9771C12.5745 21.9868 12.5057 21.9995 12.3896 21.9995L12.3896 22.9995ZM14.6376 23.6867C14.669 23.712 14.7004 23.7372 14.7319 23.7623L15.3554 22.9805C15.3253 22.9565 15.2953 22.9324 15.2653 22.9083L14.6376 23.6867ZM20.6044 24.0328C21.3165 23.534 22.0174 22.9864 22.5286 22.4751L21.8215 21.768C21.3698 22.2197 20.7227 22.729 20.0307 23.2137L20.6044 24.0328ZM14.7319 23.7623C16.4081 25.099 18.8162 25.2853 20.6044 24.0328L20.0307 23.2137C18.6374 24.1897 16.7161 24.0656 15.3554 22.9805L14.7319 23.7623ZM22.9802 15.3556C24.0653 16.7163 24.1894 18.6376 23.2135 20.0309L24.0325 20.6046C25.285 18.8165 25.0987 16.4084 23.7621 14.7322L22.9802 15.3556Z" fill="white"/>
</svg>
